GIL04_xslow1_ik
nRows=3
nColumns=375

# SIMM Motion File Header:
name GIL04_xslow1_ik
datacolumns 375
datarows 3
otherdata 1
range 0.35000000 0.36667000
endheader
time	pelvis_tx	pelvis_ty	pelvis_tz	pelvis_tilt	pelvis_list	pelvis_rotation	hip_flexion_r	hip_adduction_r	hip_rotation_r	knee_angle_r	ankle_angle_r	hip_flexion_l	hip_adduction_l	hip_rotation_l	knee_angle_l	ankle_angle_l	lumbar_extension	lumbar_bending	lumbar_rotation	subtalar_angle_r	mtp_angle_r	subtalar_angle_l	mtp_angle_l	asis_r_px	asis_r_py	asis_r_pz	asis_l_px	asis_l_py	asis_l_pz	midasis_px	midasis_py	midasis_pz	psis_r_px	psis_r_py	psis_r_pz	psis_l_px	psis_l_py	psis_l_pz	hip_r_px	hip_r_py	hip_r_pz	hip_l_px	hip_l_py	hip_l_pz	midhip_px	midhip_py	midhip_pz	epicondLat_r_px	epicondLat_r_py	epicondLat_r_pz	epicondMed_r_px	epicondMed_r_py	epicondMed_r_pz	thighwand_r_px	thighwand_r_py	thighwand_r_pz	upperleg1_r_px	upperleg1_r_py	upperleg1_r_pz	upperleg2_r_px	upperleg2_r_py	upperleg2_r_pz	malleolusLat_r_px	malleolusLat_r_py	malleolusLat_r_pz	malleolusMedv_r_px	malleolusMedv_r_py	malleolusMedv_r_pz	shankwand_r_px	shankwand_r_py	shankwand_r_pz	lowerleg1_r_px	lowerleg1_r_py	lowerleg1_r_pz	knee_r_px	knee_r_py	knee_r_pz	ankle_r_px	ankle_r_py	ankle_r_pz	toe_r_px	toe_r_py	toe_r_pz	epicondLat_l_px	epicondLat_l_py	epicondLat_l_pz	epicondMed_l_px	epicondMed_l_py	epicondMed_l_pz	thighwand_l_px	thighwand_l_py	thighwand_l_pz	upperleg1_l_px	upperleg1_l_py	upperleg1_l_pz	upperleg2_l_px	upperleg2_l_py	upperleg2_l_pz	malleolusLat_l_px	malleolusLat_l_py	malleolusLat_l_pz	malleolusMedv_l_px	malleolusMedv_l_py	malleolusMedv_l_pz	shankwand_l_px	shankwand_l_py	shankwand_l_pz	lowerleg1_l_px	lowerleg1_l_py	lowerleg1_l_pz	knee_l_px	knee_l_py	knee_l_pz	ankle_l_px	ankle_l_py	ankle_l_pz	toe_l_px	toe_l_py	toe_l_pz	subclavicle_r_px	subclavicle_r_py	subclavicle_r_pz	subclavicle_l_px	subclavicle_l_py	subclavicle_l_pz	neck_px	neck_py	neck_pz	sternalnotch_px	sternalnotch_py	sternalnotch_pz	xyphoidprocess_px	xyphoidprocess_py	xyphoidprocess_pz	midhip_tx	midhip_ty	midhip_tz	hip_r_tx	hip_r_ty	hip_r_tz	hip_l_tx	hip_l_ty	hip_l_tz	knee_r_tx	knee_r_ty	knee_r_tz	knee_l_tx	knee_l_ty	knee_l_tz	ankle_r_tx	ankle_r_ty	ankle_r_tz	ankle_l_tx	ankle_l_ty	ankle_l_tz	midasis_tx	midasis_ty	midasis_tz	asis_r_tx	asis_r_ty	asis_r_tz	asis_l_tx	asis_l_ty	asis_l_tz	psis_r_tx	psis_r_ty	psis_r_tz	psis_l_tx	psis_l_ty	psis_l_tz	epicondLat_r_tx	epicondLat_r_ty	epicondLat_r_tz	epicondLat_l_tx	epicondLat_l_ty	epicondLat_l_tz	epicondMed_r_tx	epicondMed_r_ty	epicondMed_r_tz	epicondMed_l_tx	epicondMed_l_ty	epicondMed_l_tz	malleolusLat_r_tx	malleolusLat_r_ty	malleolusLat_r_tz	malleolusLat_l_tx	malleolusLat_l_ty	malleolusLat_l_tz	malleolusMedv_r_tx	malleolusMedv_r_ty	malleolusMedv_r_tz	malleolusMedv_l_tx	malleolusMedv_l_ty	malleolusMedv_l_tz	neck_tx	neck_ty	neck_tz	subclavicle_r_tx	subclavicle_r_ty	subclavicle_r_tz	subclavicle_l_tx	subclavicle_l_ty	subclavicle_l_tz	sternalnotch_tx	sternalnotch_ty	sternalnotch_tz	xyphoidprocess_tx	xyphoidprocess_ty	xyphoidprocess_tz	thighwand_r_tx	thighwand_r_ty	thighwand_r_tz	thighwand_l_tx	thighwand_l_ty	thighwand_l_tz	upperleg1_r_tx	upperleg1_r_ty	upperleg1_r_tz	upperleg1_l_tx	upperleg1_l_ty	upperleg1_l_tz	upperleg2_r_tx	upperleg2_r_ty	upperleg2_r_tz	upperleg2_l_tx	upperleg2_l_ty	upperleg2_l_tz	shankwand_r_tx	shankwand_r_ty	shankwand_r_tz	shankwand_l_tx	shankwand_l_ty	shankwand_l_tz	lowerleg1_r_tx	lowerleg1_r_ty	lowerleg1_r_tz	lowerleg1_l_tx	lowerleg1_l_ty	lowerleg1_l_tz	toe_r_tx	toe_r_ty	toe_r_tz	toe_l_tx	toe_l_ty	toe_l_tz	ground_force_vx	ground_force_vy	ground_force_vz	ground_force_px	ground_force_py	ground_force_pz	ground_force_vx	ground_force_vy	ground_force_vz	ground_force_px	ground_force_py	ground_force_pz	ground_torque_x	ground_torque_y	ground_torque_z	ground_torque_x	ground_torque_y	ground_torque_z	ground_marker_px	ground_marker_py	ground_marker_pz	ground_marker_px	ground_marker_py	ground_marker_pz	ground_marker_px	ground_marker_py	ground_marker_pz	ground_marker_px	ground_marker_py	ground_marker_pz	ground_marker_px	ground_marker_py	ground_marker_pz	ground_marker_px	ground_marker_py	ground_marker_pz	ground_marker_px	ground_marker_py	ground_marker_pz	ground_marker_px	ground_marker_py	ground_marker_pz	ground_marker_px	ground_marker_py	ground_marker_pz	ground_marker_px	ground_marker_py	ground_marker_pz	ground_marker_px	ground_marker_py	ground_marker_pz	ground_marker_px	ground_marker_py	ground_marker_pz	ground_marker_px	ground_marker_py	ground_marker_pz	ground_marker_px	ground_marker_py	ground_marker_pz	ground_marker_px	ground_marker_py	ground_marker_pz	ground_marker_px	ground_marker_py	ground_marker_pz	ground_marker_px	ground_marker_py	ground_marker_pz	ground_marker_px	ground_marker_py	ground_marker_pz	ground_marker_px	ground_marker_py	ground_marker_pz	ground_marker_px	ground_marker_py	ground_marker_pz	ground_marker_px	ground_marker_py	ground_marker_pz	ground_marker_px	ground_marker_py	ground_marker_pz	ground_marker_px	ground_marker_py	ground_marker_pz	ground_marker_px	ground_marker_py	ground_marker_pz	ground_marker_px	ground_marker_py	ground_marker_pz	ground_marker_px	ground_marker_py	ground_marker_pz	ground_marker_px	ground_marker_py	ground_marker_pz	ground_marker_px	ground_marker_py	ground_marker_pz	ground_marker_px	ground_marker_py	ground_marker_pz	ground_marker_px	ground_marker_py	ground_marker_pz	ground_marker_px	ground_marker_py	ground_marker_pz	ground_marker_px	ground_marker_py	ground_marker_pz	ground_marker_px	ground_marker_py	ground_marker_pz	ground_marker_px	ground_marker_py	ground_marker_pz	ground_marker_px	ground_marker_py	ground_marker_pz	ground_marker_px	ground_marker_py	ground_marker_pz	ground_marker_px	ground_marker_py	ground_marker_pz
      0.35000000	      0.79251116	      0.74560341	     -0.19603674	     -2.21652243	     -1.15838120	      1.76027656	     14.18300229	      5.77905227	     -1.71722269	    -10.96276985	     -1.17416932	    -12.30474832	     -3.06705724	    -14.35666107	    -25.94390991	    -21.09347455	     -6.57018215	     -0.19786199	      2.21188030	      0.00000000	      0.00000000	      0.00000000	      0.00000000	      0.89923335	      0.73145211	     -0.11916623	      0.89931133	      0.71864309	     -0.30555870	      0.80271586	      0.74520209	     -0.19635053	      0.76722517	      0.80030770	     -0.19820224	      0.76565537	      0.79174295	     -0.25244246	      0.74103027	      0.70059338	     -0.13257858	      0.73719397	      0.69827725	     -0.25437511	      0.73911212	      0.69943532	     -0.19347685	      0.84659551	      0.37242238	     -0.10423849	      0.84358093	      0.37994993	     -0.20442276	      0.83759144	      0.47153778	     -0.02569646	      0.86811748	      0.53634246	     -0.09094562	      0.88390117	      0.45439013	     -0.10693644	      0.83290177	      0.04627490	     -0.12512486	      0.83828993	      0.05692548	     -0.18404145	      0.81332831	      0.14915379	     -0.05143080	      0.82766228	      0.20555721	     -0.11024605	      0.80512509	      0.38089736	     -0.16157230	      0.80932396	      0.06250722	     -0.18907907	      0.93618924	      0.01919418	     -0.15239453	      0.67262120	      0.36677625	     -0.34318680	      0.69732658	      0.34653666	     -0.24407490	      0.83216856	      0.41578024	     -0.36021260	      0.80579501	      0.48299170	     -0.28575976	      0.76454748	      0.40573607	     -0.27991482	      0.43477344	      0.12617974	     -0.31049804	      0.45238208	      0.11837955	     -0.24980259	      0.56546996	      0.13648356	     -0.34252189	      0.56783917	      0.21462072	     -0.30885025	      0.65445232	      0.38025307	     -0.26334411	      0.45160301	      0.13514050	     -0.23303700	      0.45691641	      0.01781420	     -0.29576401	      0.78772988	      1.13954936	     -0.14225447	      0.79052704	      1.14921819	     -0.25721582	      0.70823730	      1.14672649	     -0.20066803	      0.79018152	      1.13219226	     -0.20332010	      0.87502944	      1.01567209	     -0.21038861	      0.74878600	      0.69179000	     -0.19245900	      0.74284800	      0.69995600	     -0.12802900	      0.73741300	      0.69835400	     -0.25373000	      0.80715200	      0.38916700	     -0.16297300	      0.66078600	      0.39536400	     -0.25871900	      0.81179800	      0.05596200	     -0.17010400	      0.44689500	      0.14718800	     -0.25735300	      0.80596100	      0.76242000	     -0.19453300	      0.81011700	      0.76364500	     -0.09842300	      0.80180500	      0.76119400	     -0.29064200	      0.66287700	      0.80082900	     -0.16304700	      0.65720900	      0.79765000	     -0.21763800	      0.80896300	      0.38389900	     -0.11278100	      0.64697500	      0.39964500	     -0.30658300	      0.79874500	      0.38525500	     -0.21359600	      0.68029700	      0.38563600	     -0.20535200	      0.81020500	      0.05522400	     -0.13665000	      0.43793200	      0.15473400	     -0.28980300	      0.80420200	      0.06836200	     -0.19518500	      0.44822700	      0.15694200	     -0.22903000	      0.71967100	      1.15026600	     -0.20063100	      0.79795900	      1.09788800	     -0.13716600	      0.78933400	      1.09638500	     -0.26697700	      0.78685900	      1.08622300	     -0.20413000	      0.79193400	      0.94239200	     -0.20199400	      0.79516300	      0.46015900	     -0.02582500	      0.80519000	      0.46974500	     -0.32859200	      0.81733300	      0.53094000	     -0.08579100	      0.77141500	      0.53251800	     -0.25340500	      0.83864800	      0.45241900	     -0.11099700	      0.73940200	      0.45097400	     -0.24449100	      0.80453700	      0.15616900	     -0.05871900	      0.56962900	      0.17289400	     -0.31175200	      0.80259900	      0.21392400	     -0.11622100	      0.56540500	      0.25242200	     -0.28270200	      0.90591900	      0.03826900	     -0.18672600	      0.47517200	      0.05664100	     -0.25443400	    -15.40203491	    277.73787622	     -6.28544990	      0.83661255	      0.00000000	     -0.16938414	      0.00000000	      0.00000000	      0.00000000	      1.16340784	      0.00000000	     -0.26681651	      0.00000000	     -0.82810468	      0.00000000	      0.00000000	      0.00000000	      0.00000000	      0.74878603	      0.69179034	     -0.19245948	      0.74284780	      0.69995600	     -0.12802924	      0.73741251	      0.69835353	     -0.25373048	      0.80715215	      0.38916713	     -0.16297255	      0.66078621	      0.39536408	     -0.25871924	      0.81179762	      0.05596173	     -0.17010424	      0.44689488	      0.14718798	     -0.25735307	      0.80596089	      0.76241964	     -0.19453290	      0.81011659	      0.76364487	     -0.09842335	      0.80180514	      0.76119441	     -0.29064244	      0.66287714	      0.80082917	     -0.16304667	      0.65720886	      0.79765046	     -0.21763782	      0.80896330	      0.38389862	     -0.11278080	      0.64697492	      0.39964506	     -0.30658284	      0.79874480	      0.38525546	     -0.21359551	      0.68029678	      0.38563561	     -0.20535231	      0.81020522	      0.05522351	     -0.13665025	      0.43793207	      0.15473396	     -0.28980264	      0.80420250	      0.06836236	     -0.19518493	      0.44822738	      0.15694237	     -0.22902954	      0.71967089	      1.15026629	     -0.20063095	      0.79795915	      1.09788787	     -0.13716574	      0.78933352	      1.09638453	     -0.26697692	      0.78685921	      1.08622324	     -0.20412970	      0.79193389	      0.94239247	     -0.20199367	      0.79516333	      0.46015888	     -0.02582545	      0.80518967	      0.46974531	     -0.32859159	      0.81733274	      0.53094012	     -0.08579069	      0.77141458	      0.53251815	     -0.25340453	      0.83864784	      0.45241943	     -0.11099706	      0.73940200	      0.45097354	     -0.24449123	      0.80453700	      0.15616941	     -0.05871873	      0.56962937	      0.17289378	     -0.31175214	      0.80259889	      0.21392441	     -0.11622114	      0.56540531	      0.25242245	     -0.28270230	      0.90591884	      0.03826873	     -0.18672599	      0.47517160	      0.05664057	     -0.25443372
      0.35833000	      0.79747561	      0.74616598	     -0.19531320	     -2.08346839	     -0.98841926	      1.61016509	     13.56337831	      5.71209703	     -1.65867258	    -10.87647849	     -0.83516621	    -11.59074106	     -3.32385657	    -14.66629814	    -27.78336994	    -21.15028553	     -6.67139331	     -0.39300161	      2.50221170	      0.00000000	      0.00000000	      0.00000000	      0.00000000	      0.90402120	      0.73204687	     -0.11819221	      0.90463762	      0.71977293	     -0.30461968	      0.80768204	      0.74578972	     -0.19560026	      0.77206575	      0.80081625	     -0.19739117	      0.77066413	      0.79240346	     -0.25165977	      0.74592900	      0.70085231	     -0.13212506	      0.74243018	      0.69887659	     -0.25393775	      0.74417959	      0.69986445	     -0.19303140	      0.84870335	      0.37178224	     -0.10395229	      0.84596817	      0.37945324	     -0.20413369	      0.84035290	      0.47087592	     -0.02531072	      0.87155723	      0.53550199	     -0.09041601	      0.88669427	      0.45344035	     -0.10647132	      0.83282913	      0.04582484	     -0.12526644	      0.83842474	      0.05651023	     -0.18415738	      0.81378734	      0.14874478	     -0.05149045	      0.82863966	      0.20512089	     -0.11020317	      0.80741402	      0.38067280	     -0.16136446	      0.80950906	      0.06229519	     -0.18925429	      0.93618492	      0.01881375	     -0.15211721	      0.68264482	      0.36725407	     -0.34560176	      0.70781699	      0.34650366	     -0.24671320	      0.84141641	      0.41877777	     -0.36243979	      0.81417260	      0.48492407	     -0.28734910	      0.77408882	      0.40701391	     -0.28212891	      0.44066495	      0.12897203	     -0.31194643	      0.45843334	      0.12085306	     -0.25133941	      0.57135661	      0.13720767	     -0.34458294	      0.57513265	      0.21527562	     -0.31087915	      0.66459440	      0.37947470	     -0.26569087	      0.45800132	      0.13761366	     -0.23456095	      0.46103725	      0.02022704	     -0.29732665	      0.79250380	      1.13996572	     -0.14165734	      0.79497739	      1.14966132	     -0.25662386	      0.71284586	      1.14711108	     -0.19984913	      0.79479056	      1.13262339	     -0.20273114	      0.87968385	      1.01615236	     -0.21006015	      0.75402400	      0.69217700	     -0.19211900	      0.74784400	      0.70013900	     -0.12768000	      0.74283900	      0.69881700	     -0.25340300	      0.80961200	      0.38913700	     -0.16261100	      0.67063100	      0.39420300	     -0.26093000	      0.81200000	      0.05594300	     -0.17015400	      0.45297800	      0.14963200	     -0.25894400	      0.81102700	      0.76291300	     -0.19382300	      0.81485800	      0.76392500	     -0.09761300	      0.80719700	      0.76190200	     -0.29003400	      0.66767700	      0.80100300	     -0.16254600	      0.66200200	      0.79781600	     -0.21713300	      0.81124100	      0.38382300	     -0.11241800	      0.65669700	      0.39868700	     -0.30873900	      0.80164500	      0.38551200	     -0.21339500	      0.69059200	      0.38383300	     -0.20773400	      0.81033700	      0.05517400	     -0.13670400	      0.44430000	      0.15709100	     -0.29149100	      0.80444500	      0.06842700	     -0.19528600	      0.45436900	      0.15971500	     -0.23078800	      0.72425000	      1.15071900	     -0.19987800	      0.80280800	      1.09832000	     -0.13649800	      0.79386200	      1.09692700	     -0.26636800	      0.79147800	      1.08670300	     -0.20348100	      0.79677100	      0.94287800	     -0.20149200	      0.79782600	      0.46019000	     -0.02538200	      0.81384400	      0.47111300	     -0.33037400	      0.82067200	      0.53091500	     -0.08529000	      0.77927600	      0.53255400	     -0.25450000	      0.84162000	      0.45224700	     -0.11057200	      0.74858900	      0.45052100	     -0.24635100	      0.80520400	      0.15601400	     -0.05865800	      0.57640400	      0.17290000	     -0.31295300	      0.80371000	      0.21388600	     -0.11616500	      0.57349600	      0.25247900	     -0.28442600	      0.90604500	      0.03819700	     -0.18670300	      0.47972700	      0.05841500	     -0.25567500	    -15.35920947	    282.52108465	     -6.16081551	      0.83817352	      0.00000000	     -0.16940765	      0.00000000	      0.00000000	      0.00000000	      1.16662390	      0.00000000	     -0.26659975	      0.00000000	     -0.76741071	      0.00000000	      0.00000000	      0.00000000	      0.00000000	      0.75402379	      0.69217700	     -0.19211935	      0.74784392	      0.70013881	     -0.12768038	      0.74283862	      0.69881725	     -0.25340274	      0.80961156	      0.38913709	     -0.16261099	      0.67063069	      0.39420313	     -0.26092961	      0.81200022	      0.05594263	     -0.17015354	      0.45297801	      0.14963213	     -0.25894418	      0.81102741	      0.76291323	     -0.19382347	      0.81485784	      0.76392454	     -0.09761275	      0.80719703	      0.76190197	     -0.29003420	      0.66767681	      0.80100280	     -0.16254587	      0.66200161	      0.79781640	     -0.21713254	      0.81124133	      0.38382325	     -0.11241779	      0.65669715	      0.39868739	     -0.30873910	      0.80164498	      0.38551179	     -0.21339506	      0.69059151	      0.38383314	     -0.20773359	      0.81033719	      0.05517350	     -0.13670368	      0.44429955	      0.15709119	     -0.29149103	      0.80444485	      0.06842686	     -0.19528624	      0.45436943	      0.15971461	     -0.23078768	      0.72425020	      1.15071940	     -0.19987786	      0.80280840	      1.09832048	     -0.13649775	      0.79386187	      1.09692657	     -0.26636770	      0.79147828	      1.08670306	     -0.20348129	      0.79677051	      0.94287825	     -0.20149246	      0.79782635	      0.46018994	     -0.02538216	      0.81384420	      0.47111315	     -0.33037367	      0.82067156	      0.53091490	     -0.08529031	      0.77927595	      0.53255427	     -0.25450000	      0.84161985	      0.45224652	     -0.11057185	      0.74858856	      0.45052055	     -0.24635138	      0.80520421	      0.15601419	     -0.05865774	      0.57640445	      0.17289957	     -0.31295252	      0.80370981	      0.21388601	     -0.11616503	      0.57349575	      0.25247869	     -0.28442577	      0.90604478	      0.03819694	     -0.18670252	      0.47972727	      0.05841463	     -0.25567529
      0.36667000	      0.80231190	      0.74668526	     -0.19462982	     -1.95342126	     -0.82099706	      1.47257313	     12.96472501	      5.64214111	     -1.56217745	    -10.80403906	     -0.49775386	    -10.81648654	     -3.56745101	    -14.87609030	    -29.64984056	    -20.99258432	     -6.78123537	     -0.58526402	      2.75440146	      0.00000000	      0.00000000	      0.00000000	      0.00000000	      0.90869676	      0.73259282	     -0.11728239	      0.90980748	      0.72084957	     -0.30374175	      0.81251986	      0.74633333	     -0.19489236	      0.77678107	      0.80128251	     -0.19661663	      0.77553454	      0.79302060	     -0.25091219	      0.75071239	      0.70107376	     -0.13169966	      0.74752261	      0.69943575	     -0.25352584	      0.74911750	      0.70025476	     -0.19261275	      0.85083284	      0.37116845	     -0.10373949	      0.84828424	      0.37896361	     -0.20391623	      0.84317167	      0.47024473	     -0.02500588	      0.87497018	      0.53468741	     -0.09000537	      0.88947466	      0.45252454	     -0.10612674	      0.83280077	      0.04540055	     -0.12541526	      0.83854800	      0.05611006	     -0.18428721	      0.81434720	      0.14836810	     -0.05155627	      0.82965628	      0.20470517	     -0.11018909	      0.80967502	      0.38044873	     -0.16119329	      0.80967863	      0.06209367	     -0.18941720	      0.93620207	      0.01846204	     -0.15193822	      0.69297145	      0.36766794	     -0.34788874	      0.71850403	      0.34651087	     -0.24917891	      0.85090015	      0.42183930	     -0.36433922	      0.82263708	      0.48692853	     -0.28870351	      0.78379563	      0.40835234	     -0.28411257	      0.44700344	      0.13162788	     -0.31332322	      0.46486058	      0.12325417	     -0.25277698	      0.57768931	      0.13783838	     -0.34642777	      0.58278824	      0.21584895	     -0.31276533	      0.67493056	      0.37866317	     -0.26795410	      0.46474675	      0.14002447	     -0.23600302	      0.46604519	      0.02266602	     -0.29888129	      0.79719916	      1.14033383	     -0.14108589	      0.79940150	      1.15004585	     -0.25605654	      0.71740336	      1.14745881	     -0.19909099	      0.79934625	      1.13300056	     -0.20216585	      0.88426350	      1.01656065	     -0.20970843	      0.75909800	      0.69251100	     -0.19182100	      0.75270600	      0.70027200	     -0.12735200	      0.74810400	      0.69923500	     -0.25309200	      0.81201800	      0.38909100	     -0.16229400	      0.68065300	      0.39305300	     -0.26308100	      0.81218200	      0.05592800	     -0.17020600	      0.45948000	      0.15204600	     -0.26040900	      0.81595100	      0.76335200	     -0.19314500	      0.81947600	      0.76414600	     -0.09683400	      0.81242600	      0.76255800	     -0.28945600	      0.67236100	      0.80113100	     -0.16208300	      0.66667900	      0.79793100	     -0.21665400	      0.81351200	      0.38373900	     -0.11210100	      0.66665700	      0.39769500	     -0.31085700	      0.80436100	      0.38576900	     -0.21327200	      0.70103400	      0.38213800	     -0.20998500	      0.81046500	      0.05513300	     -0.13676000	      0.45107200	      0.15940000	     -0.29305000	      0.80467300	      0.06848500	     -0.19537600	      0.46103200	      0.16242700	     -0.23241400	      0.72875400	      1.15116900	     -0.19918600	      0.80756000	      1.09867300	     -0.13589400	      0.79840600	      1.09736800	     -0.26576400	      0.79604300	      1.08710700	     -0.20286500	      0.80148300	      0.94327500	     -0.20099700	      0.80053100	      0.46021900	     -0.02500100	      0.82267300	      0.47251200	     -0.33194000	      0.82401800	      0.53089200	     -0.08486300	      0.78724000	      0.53263200	     -0.25551300	      0.84455200	      0.45201800	     -0.11026900	      0.75791500	      0.45014100	     -0.24807800	      0.80589500	      0.15586700	     -0.05861500	      0.58353700	      0.17289600	     -0.31406100	      0.80495600	      0.21383300	     -0.11607800	      0.58193100	      0.25248800	     -0.28612000	      0.90617900	      0.03812600	     -0.18667900	      0.48503800	      0.06029200	     -0.25707900	    -15.56431589	    287.58131601	     -6.09296690	      0.84013281	      0.00000000	     -0.16945505	      0.00000000	      0.00000000	      0.00000000	      1.16985388	      0.00000000	     -0.26637338	      0.00000000	     -0.69906812	      0.00000000	      0.00000000	      0.00000000	      0.00000000	      0.75909770	      0.69251120	     -0.19182110	      0.75270629	      0.70027220	     -0.12735151	      0.74810421	      0.69923544	     -0.25309196	      0.81201828	      0.38909096	     -0.16229440	      0.68065339	      0.39305314	     -0.26308060	      0.81218237	      0.05592790	     -0.17020608	      0.45948011	      0.15204561	     -0.26040894	      0.81595063	      0.76335204	     -0.19314510	      0.81947559	      0.76414621	     -0.09683444	      0.81242567	      0.76255786	     -0.28945577	      0.67236078	      0.80113107	     -0.16208340	      0.66667920	      0.79793096	     -0.21665369	      0.81351191	      0.38373938	     -0.11210098	      0.66665661	      0.39769518	     -0.31085658	      0.80436122	      0.38576889	     -0.21327211	      0.70103431	      0.38213840	     -0.20998515	      0.81046504	      0.05513278	     -0.13675958	      0.45107213	      0.15939978	     -0.29305050	      0.80467331	      0.06848476	     -0.19537584	      0.46103200	      0.16242708	     -0.23241439	      0.72875381	      1.15116882	     -0.19918594	      0.80755967	      1.09867346	     -0.13589413	      0.79840559	      1.09736812	     -0.26576436	      0.79604262	      1.08710706	     -0.20286453	      0.80148321	      0.94327497	     -0.20099685	      0.80053055	      0.46021920	     -0.02500058	      0.82267284	      0.47251213	     -0.33194047	      0.82401806	      0.53089160	     -0.08486262	      0.78724027	      0.53263187	     -0.25551328	      0.84455174	      0.45201814	     -0.11026945	      0.75791514	      0.45014077	     -0.24807805	      0.80589461	      0.15586701	     -0.05861510	      0.58353662	      0.17289570	     -0.31406140	      0.80495566	      0.21383257	     -0.11607786	      0.58193111	      0.25248793	     -0.28612024	      0.90617931	      0.03812619	     -0.18667915	      0.48503810	      0.06029170	     -0.25707889
